<svg
 xmlns="http://www.w3.org/2000/svg"
 xmlns:xlink="http://www.w3.org/1999/xlink"
 width="65px" height="42px">
<path fill-rule="evenodd"  fill="rgb(38, 38, 38)"
 d="M58.123,6.096 L58.123,40.948 L50.999,40.948 L50.999,6.096 L16.366,6.096 L16.366,0.287 L64.479,0.287 L64.479,6.096 L58.123,6.096 ZM3.914,41.186 C2.637,41.186 1.551,41.108 0.657,40.954 L0.657,35.156 C1.338,35.311 2.104,35.388 2.956,35.388 C4.361,35.388 5.404,35.069 6.085,34.431 C6.765,33.793 7.107,32.817 7.107,31.503 L7.107,0.365 L14.131,0.365 L14.131,31.329 C14.131,34.654 13.290,37.127 11.609,38.751 C9.926,40.374 7.362,41.186 3.914,41.186 ZM25.463,31.413 L27.764,9.493 L37.299,9.493 L39.601,31.632 L41.902,9.493 L47.930,9.493 L44.423,40.948 L35.655,40.948 L32.477,14.316 L29.299,40.948 L19.983,40.948 L16.476,9.493 L23.271,9.493 L25.463,31.413 Z"/>
</svg>
